<svg height="512pt" viewBox="-33 0 512 512" width="512pt" xmlns="http://www.w3.org/2000/svg"><path d="m438.238281 497h-9.066406v-25.636719c0-4.140625-3.359375-7.5-7.5-7.5h-9.066406v-257.5625c0-4.140625-3.359375-7.5-7.5-7.5h-91.898438v-25.632812c0-4.144531-3.359375-7.5-7.5-7.5h-9.070312v-25.632813c0-4.140625-3.355469-7.5-7.5-7.5h-132.535157c-4.140624 0-7.5 3.359375-7.5 7.5v25.632813h-9.066406c-4.140625 0-7.5 3.355469-7.5 7.5v25.632812h-43.765625c-4.144531 0-7.5 3.359375-7.5 7.5s3.355469 7.5 7.5 7.5h43.765625v200.367188h-84.402344v-200.367188h10.636719c4.140625 0 7.5-3.359375 7.5-7.5s-3.359375-7.5-7.5-7.5h-18.136719c-4.144531 0-7.5 3.359375-7.5 7.5v257.5625h-9.066406c-4.140625 0-7.5 3.359375-7.5 7.5v25.636719h-9.066406c-4.144531 0-7.5 3.359375-7.5 7.5s3.355469 7.5 7.5 7.5h430.738281c4.140625 0 7.5-3.359375 7.5-7.5s-3.359375-7.5-7.5-7.5zm-173.167969-100.964844v67.828125h-34.699218v-67.828125zm48.132813 33.132813h84.398437v34.695312h-84.398437zm-97.832031 34.695312h-34.699219v-67.828125h34.699219zm182.234375-250.0625v200.367188h-84.402344v-200.367188zm-233.503907-66.265625h117.535157v18.132813h-117.535157zm-16.566406 33.132813h9.027344.039062 132.535157.039062 9.027344v25.613281.019531 257.5625h-18.132813v-75.328125c0-4.144531-3.359374-7.5-7.5-7.5h-99.398437c-4.144531 0-7.5 3.355469-7.5 7.5v75.328125h-18.136719zm-15 248.5v34.695312h-84.402344v-34.695312zm-100.96875 67.832031v-18.136719h191.160156c.046876.003907.09375.007813.144532.007813.050781 0 .097656-.003906.144531-.007813h191.15625v18.136719zm0 0"/><path d="m169.027344 213.800781h8.285156c4.140625 0 7.5-3.359375 7.5-7.5s-3.359375-7.5-7.5-7.5h-8.285156c-4.140625 0-7.5 3.359375-7.5 7.5s3.359375 7.5 7.5 7.5zm0 0"/><path d="m268.425781 213.800781h8.285157c4.144531 0 7.5-3.359375 7.5-7.5s-3.355469-7.5-7.5-7.5h-8.285157c-4.140625 0-7.5 3.359375-7.5 7.5s3.359375 7.5 7.5 7.5zm0 0"/><path d="m169.027344 246.933594h8.285156c4.140625 0 7.5-3.355469 7.5-7.5 0-4.140625-3.359375-7.5-7.5-7.5h-8.285156c-4.140625 0-7.5 3.359375-7.5 7.5 0 4.144531 3.359375 7.5 7.5 7.5zm0 0"/><path d="m268.425781 246.933594h8.285157c4.144531 0 7.5-3.355469 7.5-7.5 0-4.140625-3.355469-7.5-7.5-7.5h-8.285157c-4.140625 0-7.5 3.359375-7.5 7.5 0 4.144531 3.359375 7.5 7.5 7.5zm0 0"/><path d="m169.027344 280.066406h8.285156c4.140625 0 7.5-3.355468 7.5-7.5 0-4.140625-3.359375-7.5-7.5-7.5h-8.285156c-4.140625 0-7.5 3.359375-7.5 7.5 0 4.144532 3.359375 7.5 7.5 7.5zm0 0"/><path d="m102.761719 246.933594h8.28125c4.144531 0 7.5-3.355469 7.5-7.5 0-4.140625-3.355469-7.5-7.5-7.5h-8.28125c-4.144531 0-7.5 3.359375-7.5 7.5 0 4.144531 3.355469 7.5 7.5 7.5zm0 0"/><path d="m102.761719 280.066406h8.28125c4.144531 0 7.5-3.355468 7.5-7.5 0-4.140625-3.355469-7.5-7.5-7.5h-8.28125c-4.144531 0-7.5 3.359375-7.5 7.5 0 4.144532 3.355469 7.5 7.5 7.5zm0 0"/><path d="m102.761719 313.199219h8.28125c4.144531 0 7.5-3.355469 7.5-7.5 0-4.140625-3.355469-7.5-7.5-7.5h-8.28125c-4.144531 0-7.5 3.359375-7.5 7.5 0 4.144531 3.355469 7.5 7.5 7.5zm0 0"/><path d="m102.761719 346.335938h8.28125c4.144531 0 7.5-3.359376 7.5-7.5 0-4.144532-3.355469-7.5-7.5-7.5h-8.28125c-4.144531 0-7.5 3.355468-7.5 7.5 0 4.140624 3.355469 7.5 7.5 7.5zm0 0"/><path d="m62.125 239.433594c0 4.144531 3.355469 7.5 7.5 7.5h8.28125c4.144531 0 7.5-3.355469 7.5-7.5 0-4.140625-3.355469-7.5-7.5-7.5h-8.28125c-4.140625 0-7.5 3.359375-7.5 7.5zm0 0"/><path d="m77.910156 265.066406h-8.285156c-4.140625 0-7.5 3.359375-7.5 7.5 0 4.144532 3.359375 7.5 7.5 7.5h8.285156c4.140625 0 7.5-3.355468 7.5-7.5 0-4.140625-3.359375-7.5-7.5-7.5zm0 0"/><path d="m77.910156 298.199219h-8.285156c-4.140625 0-7.5 3.359375-7.5 7.5 0 4.144531 3.359375 7.5 7.5 7.5h8.285156c4.140625 0 7.5-3.355469 7.5-7.5 0-4.140625-3.359375-7.5-7.5-7.5zm0 0"/><path d="m77.910156 331.335938h-8.285156c-4.140625 0-7.5 3.355468-7.5 7.5 0 4.140624 3.359375 7.5 7.5 7.5h8.285156c4.140625 0 7.5-3.359376 7.5-7.5 0-4.144532-3.359375-7.5-7.5-7.5zm0 0"/><path d="m367.828125 246.933594h8.285156c4.140625 0 7.5-3.355469 7.5-7.5 0-4.140625-3.359375-7.5-7.5-7.5h-8.285156c-4.140625 0-7.5 3.359375-7.5 7.5 0 4.144531 3.359375 7.5 7.5 7.5zm0 0"/><path d="m367.828125 280.066406h8.285156c4.140625 0 7.5-3.355468 7.5-7.5 0-4.140625-3.359375-7.5-7.5-7.5h-8.285156c-4.140625 0-7.5 3.359375-7.5 7.5 0 4.144532 3.359375 7.5 7.5 7.5zm0 0"/><path d="m367.828125 313.199219h8.285156c4.140625 0 7.5-3.355469 7.5-7.5 0-4.140625-3.359375-7.5-7.5-7.5h-8.285156c-4.140625 0-7.5 3.359375-7.5 7.5 0 4.144531 3.359375 7.5 7.5 7.5zm0 0"/><path d="m367.828125 346.335938h8.285156c4.140625 0 7.5-3.359376 7.5-7.5 0-4.144532-3.359375-7.5-7.5-7.5h-8.285156c-4.140625 0-7.5 3.355468-7.5 7.5 0 4.140624 3.359375 7.5 7.5 7.5zm0 0"/><path d="m334.695312 246.933594h8.28125c4.144532 0 7.5-3.355469 7.5-7.5 0-4.140625-3.355468-7.5-7.5-7.5h-8.28125c-4.144531 0-7.5 3.359375-7.5 7.5 0 4.144531 3.355469 7.5 7.5 7.5zm0 0"/><path d="m334.695312 280.066406h8.28125c4.144532 0 7.5-3.355468 7.5-7.5 0-4.140625-3.355468-7.5-7.5-7.5h-8.28125c-4.144531 0-7.5 3.359375-7.5 7.5 0 4.144532 3.355469 7.5 7.5 7.5zm0 0"/><path d="m334.695312 313.199219h8.28125c4.144532 0 7.5-3.355469 7.5-7.5 0-4.140625-3.355468-7.5-7.5-7.5h-8.28125c-4.144531 0-7.5 3.359375-7.5 7.5 0 4.144531 3.355469 7.5 7.5 7.5zm0 0"/><path d="m342.976562 331.335938h-8.28125c-4.144531 0-7.5 3.355468-7.5 7.5 0 4.140624 3.355469 7.5 7.5 7.5h8.28125c4.144532 0 7.5-3.359376 7.5-7.5 0-4.144532-3.355468-7.5-7.5-7.5zm0 0"/><path d="m268.425781 280.066406h8.285157c4.144531 0 7.5-3.355468 7.5-7.5 0-4.140625-3.355469-7.5-7.5-7.5h-8.285157c-4.140625 0-7.5 3.359375-7.5 7.5 0 4.144532 3.359375 7.5 7.5 7.5zm0 0"/><path d="m218.726562 213.800781h8.285157c4.140625 0 7.5-3.359375 7.5-7.5s-3.359375-7.5-7.5-7.5h-8.285157c-4.144531 0-7.5 3.359375-7.5 7.5s3.355469 7.5 7.5 7.5zm0 0"/><path d="m218.726562 246.933594h8.285157c4.140625 0 7.5-3.355469 7.5-7.5 0-4.140625-3.359375-7.5-7.5-7.5h-8.285157c-4.144531 0-7.5 3.359375-7.5 7.5 0 4.144531 3.355469 7.5 7.5 7.5zm0 0"/><path d="m218.726562 280.066406h8.285157c4.140625 0 7.5-3.355468 7.5-7.5 0-4.140625-3.359375-7.5-7.5-7.5h-8.285157c-4.144531 0-7.5 3.359375-7.5 7.5 0 4.144532 3.355469 7.5 7.5 7.5zm0 0"/><path d="m169.027344 313.199219h8.285156c4.140625 0 7.5-3.359375 7.5-7.5s-3.359375-7.5-7.5-7.5h-8.285156c-4.140625 0-7.5 3.359375-7.5 7.5s3.359375 7.5 7.5 7.5zm0 0"/><path d="m268.425781 313.199219h8.285157c4.144531 0 7.5-3.359375 7.5-7.5s-3.355469-7.5-7.5-7.5h-8.285157c-4.140625 0-7.5 3.359375-7.5 7.5s3.359375 7.5 7.5 7.5zm0 0"/><path d="m169.027344 346.332031h8.285156c4.140625 0 7.5-3.355469 7.5-7.5 0-4.140625-3.359375-7.5-7.5-7.5h-8.285156c-4.140625 0-7.5 3.359375-7.5 7.5 0 4.144531 3.359375 7.5 7.5 7.5zm0 0"/><path d="m268.425781 346.332031h8.285157c4.144531 0 7.5-3.355469 7.5-7.5 0-4.140625-3.355469-7.5-7.5-7.5h-8.285157c-4.140625 0-7.5 3.359375-7.5 7.5 0 4.144531 3.359375 7.5 7.5 7.5zm0 0"/><path d="m218.726562 313.199219h8.285157c4.140625 0 7.5-3.359375 7.5-7.5s-3.359375-7.5-7.5-7.5h-8.285157c-4.144531 0-7.5 3.359375-7.5 7.5s3.355469 7.5 7.5 7.5zm0 0"/><path d="m218.726562 346.332031h8.285157c4.140625 0 7.5-3.355469 7.5-7.5 0-4.140625-3.359375-7.5-7.5-7.5h-8.285157c-4.144531 0-7.5 3.359375-7.5 7.5 0 4.144531 3.355469 7.5 7.5 7.5zm0 0"/><path d="m173.171875 81.265625h25.628906v25.632813c0 4.140624 3.359375 7.5 7.5 7.5h33.136719c4.140625 0 7.5-3.359376 7.5-7.5v-25.632813h25.632812c4.140626 0 7.5-3.359375 7.5-7.5v-33.132813c0-4.144531-3.359374-7.5-7.5-7.5h-25.632812v-25.632812c0-4.140625-3.359375-7.5-7.5-7.5h-33.136719c-4.140625 0-7.5 3.359375-7.5 7.5v25.632812h-25.628906c-4.144531 0-7.5 3.355469-7.5 7.5v33.132813c0 4.140625 3.355469 7.5 7.5 7.5zm7.5-33.132813h25.628906c4.144531 0 7.5-3.359374 7.5-7.5v-25.632812h18.136719v25.632812c0 4.140626 3.355469 7.5 7.5 7.5h25.632812v18.132813h-25.632812c-4.144531 0-7.5 3.359375-7.5 7.5v25.632813h-18.136719v-25.632813c0-4.140625-3.355469-7.5-7.5-7.5h-25.628906zm0 0"/></svg>