<?xml version="1.0"?>
<svg xmlns="http://www.w3.org/2000/svg" xmlns:xlink="http://www.w3.org/1999/xlink" xmlns:svgjs="http://svgjs.com/svgjs" version="1.1" width="512" height="512" x="0" y="0" viewBox="0 0 32 32" style="enable-background:new 0 0 512 512" xml:space="preserve" class=""><g><g xmlns="http://www.w3.org/2000/svg" id="Printer"><path d="m11 19v8a1 1 0 0 0 1 1h8a1 1 0 0 0 1-1v-8zm7 7h-4a1 1 0 0 1 0-2h4a1 1 0 0 1 0 2zm0-3h-4a1 1 0 0 1 0-2h4a1 1 0 0 1 0 2z" fill="#ffffff" data-original="#000000" style="" class=""/><path d="m26 10h-20a2.996 2.996 0 0 0 -3 3v8a3.0088 3.0088 0 0 0 3 3h3v-6a1.0029 1.0029 0 0 1 1-1h12a1.0029 1.0029 0 0 1 1 1v6h3a3.0088 3.0088 0 0 0 3-3v-8a2.996 2.996 0 0 0 -3-3zm-2 5a.9889.9889 0 0 1 -1-1 1 1 0 1 1 1 1z" fill="#ffffff" data-original="#000000" style="" class=""/><path d="m23 5v4h-14v-4a1.0029 1.0029 0 0 1 1-1h12a1.0029 1.0029 0 0 1 1 1z" fill="#ffffff" data-original="#000000" style="" class=""/></g></g></svg>
