<svg height="512pt" viewBox="-17 0 512 512.00046" width="512pt" xmlns="http://www.w3.org/2000/svg"><path d="m473.742188 401.535156-25.648438-14.808594c18.425781-34.339843 28.132812-72.96875 28.132812-112.207031 0-118.640625-87.859374-219.191406-204.898437-235.246093l-26.53125-36.207032c-1.917969-2.613281-5.300781-3.703125-8.382813-2.695312-3.082031 1.007812-5.167968 3.886718-5.167968 7.128906v29.671875c-55.214844 1.738281-108.074219 22.609375-149.578125 59.234375-3.105469 2.742188-3.398438 7.480469-.660157 10.585938 1.484376 1.679687 3.550782 2.535156 5.628907 2.535156 1.761719 0 3.53125-.617188 4.957031-1.875 40.636719-35.863282 92.894531-55.613282 147.152344-55.613282 4.140625 0 7.5-3.355468 7.5-7.5v-14.117187l36.234375 49.449219-36.234375 48.3125v-12.871094c0-.003906 0-.003906 0-.007812 0-4.140626-3.355469-7.5-7.5-7.5-91.925782 0-166.714844 74.789062-166.714844 166.714843 0 16.417969 2.367188 32.527344 7.035156 48.046875l-34.484375-4.15625c-3.277343-.390625-6.429687 1.402344-7.761719 4.425782l-9.414062 21.378906c-7.390625-22.386719-11.140625-45.753906-11.140625-69.695313 0-53.792969 19.453125-105.714843 54.777344-146.199219 2.722656-3.117187 2.398437-7.855468-.722657-10.582031-3.117187-2.71875-7.855468-2.398437-10.582031.722657-37.707031 43.214843-58.472656 98.640624-58.472656 156.058593 0 30.96875 5.878906 61.039063 17.445313 89.445313l-18.074219 41.042968c-1.308594 2.96875-.558594 6.441407 1.859375 8.605469 1.410156 1.265625 3.199218 1.917969 5.007812 1.917969 1.285156 0 2.578125-.332031 3.746094-1.003906l25.660156-14.816406c20.273438 32.609374 48.289063 60.007812 81.414063 79.535156 36.351562 21.425781 77.996093 32.753906 120.421875 32.753906 37.789062 0 73.917968-8.617188 107.382812-25.609375 30.992188-15.734375 58.585938-38.535156 80.019532-66.027344l44.660156-4.875c3.222656-.355469 5.855468-2.738281 6.523437-5.914062s-.78125-6.417969-3.589843-8.039063zm-386.710938-127.015625c0-81.140625 64.027344-147.605469 144.214844-151.527343v27.691406c0 3.230468 2.066406 6.09375 5.128906 7.117187.777344.257813 1.578125.382813 2.371094.382813 2.316406 0 4.554687-1.074219 6-3l22.304687-29.742188c71.777344 13.472656 123.410157 75.464844 123.410157 149.078125 0 24.160157-5.773438 47.949219-16.726563 69.273438l-23.992187-13.851563c-2.796876-1.613281-6.3125-1.257812-8.726563.882813-2.414063 2.144531-3.1875 5.589843-1.921875 8.558593l14.59375 34.164063c-28.898438 33.542969-70.539062 52.691406-114.941406 52.691406-51.480469 0-99.640625-26.441406-127.476563-69.457031l23.984375-13.847656c2.796875-1.613282 4.246094-4.835938 3.597656-8-.648437-3.160156-3.246093-5.554688-6.453124-5.941406l-36.921876-4.449219c-5.601562-16.035157-8.445312-32.839844-8.445312-50.023438zm151.714844 222.480469c-78.957032 0-152.609375-42.390625-192.382813-110.671875-.089843-.191406-.183593-.382813-.289062-.566406-1.429688-2.476563-4.058594-3.828125-6.730469-3.746094-1.214844.027344-2.4375.355469-3.5625 1.003906-.117188.070313-.226562.144531-.339844.21875l-11.839844 6.835938 24.703126-56.105469 59.960937 7.222656-11.152344 6.441406c-.453125.261719-.867187.5625-1.242187.898438-2.621094 2.3125-3.339844 6.226562-1.519532 9.371094 14.394532 24.878906 35.09375 45.746094 59.863282 60.339844 25.519531 15.042968 54.75 22.992187 84.53125 22.992187 46.355468 0 89.957031-19 121.429687-52.5l13.664063 31.992187c1.191406 2.78125 3.917968 4.554688 6.894531 4.554688.269531 0 .542969-.015625.816406-.046875l23.144531-2.527344c-42.214843 47.421875-101.746093 74.292969-165.949218 74.292969zm146.703125-87.28125-23.722657-55.535156 11.152344 6.4375c.597656.34375 1.21875.589844 1.855469.753906.003906.003906.011719.003906.019531.007812.597656.15625 1.203125.234376 1.808594.238282.03125 0 .0625.007812.09375.007812.0625 0 .125-.011718.1875-.011718.183594-.003907.367188-.015626.550781-.035157.128907-.011719.257813-.027343.386719-.046875.128906-.019531.257812-.046875.382812-.074218.359376-.074219.714844-.171876 1.058594-.296876.011719-.003906.027344-.007812.039063-.011718.210937-.078125.414062-.171875.617187-.269532.023438-.007812.046875-.019531.070313-.03125 1.296875-.632812 2.429687-1.628906 3.203125-2.96875 14.59375-25.230468 22.308594-54.054687 22.308594-83.363281 0-39.9375-14.339844-78.570312-40.378907-108.785156-23.089843-26.789063-54.03125-45.5-88.113281-53.511719l20.847656-27.800781c1.980469-2.640625 2-6.269531.050782-8.933594l-13.789063-18.816406c102.164063 21.109375 177.148437 111.753906 177.148437 217.847656 0 38.90625-10.1875 77.164063-29.453124 110.691407-.125.179687-.246094.359374-.355469.546874-.648438 1.128907-.972657 2.355469-1.003907 3.570313-.089843 2.679687 1.257813 5.320313 3.738282 6.753906.308594.179688.625.332031.945312.460938l11.292969 6.519531zm0 0"/><path d="m192 350.105469c6.742188 0 13.46875-1.117188 19.902344-3.367188l19.339844 19.339844v14.582031c0 4.144532 3.359374 7.5 7.5 7.5 4.144531 0 7.5-3.355468 7.5-7.5v-15.285156l19.34375-19.34375c6.4375 2.25 13.160156 3.367188 19.902343 3.367188 16.707031 0 33.5-6.734376 46.121094-19.355469 19.035156-19.03125 24.671875-47.546875 14.03125-70.953125-.75-1.648438-2.070313-2.972656-3.722656-3.722656-23.40625-10.640626-51.921875-5-70.953125 14.03125-17.71875 17.722656-23.824219 43.65625-15.996094 66.039062l-8.726562 8.722656v-64.707031c21.359374-10.292969 35.382812-32.945313 35.382812-58.003906 0-26.917969-16.175781-51.066407-40.25-60.09375-1.695312-.636719-3.566406-.636719-5.265625 0-24.074219 9.027343-40.25 33.175781-40.25 60.09375 0 25.058593 14.023437 47.710937 35.382813 58.003906v65.414063l-8.722657-8.722657c7.824219-22.382812 1.722657-48.320312-16-66.039062-19.03125-19.03125-47.542969-24.671875-70.953125-14.03125-1.648437.75-2.972656 2.070312-3.722656 3.722656-10.640625 23.40625-5 51.917969 14.035156 70.953125 12.625 12.621094 29.414063 19.355469 46.121094 19.355469zm89.574219-70.097657c13.917969-13.921874 34.28125-18.597656 51.507812-12.078124 6.515625 17.222656 1.84375 37.585937-12.078125 51.507812-11.722656 11.722656-28.015625 16.886719-43.15625 14.332031l28.746094-28.746093c2.929688-2.925782 2.929688-7.675782 0-10.605469-2.929688-2.929688-7.675781-2.929688-10.605469 0l-28.746093 28.75c-2.558594-15.144531 2.605468-31.4375 14.332031-43.160157zm-70.710938-58.558593c0-19.6875 11.09375-37.390625 27.878907-44.964844 16.789062 7.574219 27.882812 25.277344 27.882812 44.964844 0 16.578125-7.867188 31.75-20.382812 40.652343v-40.65625c0-4.140624-3.355469-7.5-7.5-7.5-4.140626 0-7.5 3.359376-7.5 7.5v40.65625c-12.507813-8.902343-20.378907-24.074218-20.378907-40.652343zm-66.453125 47.183593c17.226563-6.515624 37.585938-1.84375 51.507813 12.078126 11.726562 11.726562 16.890625 28.019531 14.332031 43.160156l-28.746094-28.746094c-2.929687-2.929688-7.679687-2.929688-10.605468 0-2.929688 2.929688-2.929688 7.675781 0 10.605469l28.742187 28.746093c-15.136719 2.554688-31.429687-2.609374-43.152344-14.332031-13.921875-13.921875-18.597656-34.285156-12.078125-51.511719zm0 0"/></svg>